<svg width="24" height="24" viewBox="0 0 24 24" fill="none" xmlns="http://www.w3.org/2000/svg">
<g clip-path="url(#clip0_509_3599)">
<path d="M12 2.83399C9.90183 2.83159 7.84677 3.42968 6.07756 4.55764C4.30835 5.6856 2.89888 7.2963 2.01562 9.19952C1.13235 11.1027 0.812192 13.219 1.09294 15.2983C1.3737 17.3776 2.24363 19.3332 3.60001 20.934L3.80001 21.1673H20.2L20.4 20.934C21.7564 19.3332 22.6263 17.3776 22.9071 15.2983C23.1878 13.219 22.8677 11.1027 21.9844 9.19952C21.1012 7.2963 19.6917 5.6856 17.9225 4.55764C16.1533 3.42968 14.0982 2.83159 12 2.83399ZM17.7333 9.15399L13.7867 13.0273C13.9884 13.4538 14.0329 13.9378 13.9123 14.3939C13.7916 14.85 13.5137 15.2487 13.1275 15.5197C12.7413 15.7907 12.2718 15.9164 11.8019 15.8747C11.332 15.833 10.8919 15.6265 10.5595 15.2917C10.2271 14.957 10.0238 14.5155 9.98537 14.0453C9.94698 13.5751 10.076 13.1065 10.3497 12.7222C10.6234 12.338 11.0241 12.0628 11.481 11.9454C11.938 11.828 12.4217 11.8759 12.8467 12.0807L16.7867 8.20732L17.7333 9.15399ZM2.40001 13.2673H4.66668V14.6007H2.37335C2.37335 14.3407 2.34001 14.0873 2.34001 13.8207C2.34001 13.554 2.35335 13.454 2.36668 13.2673H2.40001ZM5.65335 6.60066L7.29335 8.24066L6.31335 9.16066L4.66668 7.52733C4.96223 7.19014 5.28077 6.87383 5.62001 6.58066L5.65335 6.60066ZM12.6667 6.52733H11.3333V4.19399H12C12.2467 4.19399 12.4667 4.19399 12.6667 4.22732V6.52733ZM21.66 13.8273C21.66 14.0873 21.66 14.354 21.6267 14.6073H19.28V13.274H21.6333C21.6467 13.454 21.66 13.6407 21.66 13.8273Z" fill="white"/>
</g>
<defs>
<clipPath id="clip0_509_3599">
<rect width="24" height="24" fill="white"/>
</clipPath>
</defs>
</svg>
